Input #0, png_pipe, from 'docs/hero-animation-polish/asset-validation/new-poster-decoded.png':
  Duration: N/A, bitrate: N/A
  Stream #0:0: Video: png, rgba(pc, gbr/unknown/unknown), 1920x1080, 25 fps, 25 tbr, 25 tbn
Input #1, png_pipe, from 'docs/hero-animation-polish/before/frame-analysis/forward-frame-0.png':
  Duration: N/A, bitrate: N/A
  Stream #1:0: Video: png, rgba(pc, gbr/unknown/unknown), 1920x1080 [SAR 1:1 DAR 16:9], 25 fps, 25 tbr, 25 tbn
Stream mapping:
  Stream #0:0 (png) -> format:default
  Stream #1:0 (png) -> format:default
  psnr:default -> Stream #0:0 (wrapped_avframe)
Press [q] to stop, [?] for help
Output #0, null, to 'pipe:':
  Metadata:
    encoder         : Lavf61.7.100
  Stream #0:0: Video: wrapped_avframe, gbrap(pc, gbr/unknown/unknown, progressive), 1920x1080, q=2-31, 200 kb/s, 25 fps, 25 tbn
      Metadata:
        encoder         : Lavc61.19.101 wrapped_avframe
[Parsed_psnr_2 @ 0x7d1c200047c0] PSNR r:8.396693 g:8.396693 b:8.396693 a:inf average:9.646080 min:9.646080 max:9.646080
[out#0/null @ 0x56561a32ba00] video:0KiB audio:0KiB subtitle:0KiB other streams:0KiB global headers:0KiB muxing overhead: unknown
frame=    1 fps=0.0 q=-0.0 Lsize=N/A time=00:00:00.04 bitrate=N/A speed=0.694x
